<mxfile host="app.diagrams.net" modified="2020-11-13T05:02:14.659Z" agent="5.0 (Windows NT 10.0; Win64; x64) AppleWebKit/537.36 (KHTML, like Gecko) Chrome/86.0.4240.183 Safari/537.36 Edg/86.0.622.63" etag="PUYMp1ZygbURf16MpKat" version="13.8.9-1" type="github">
  <diagram id="qzjocCDqRrdQ7CHc1XDc" name="Page-1">
    <mxGraphModel dx="1422" dy="832" grid="1" gridSize="10" guides="1" tooltips="1" connect="1" arrows="1" fold="1" page="1" pageScale="1" pageWidth="850" pageHeight="1100" math="0" shadow="0">
      <root>
        <mxCell id="0" />
        <mxCell id="1" parent="0" />
        <mxCell id="g9qXsRPy_t7KyJfr9dKG-1" value="&lt;font style=&quot;font-size: 20px&quot;&gt;A&lt;br&gt;8&lt;/font&gt;" style="text;html=1;strokeColor=none;fillColor=none;align=center;verticalAlign=middle;whiteSpace=wrap;rounded=0;fontSize=21;" vertex="1" parent="1">
          <mxGeometry x="450" y="40" width="40" height="20" as="geometry" />
        </mxCell>
        <mxCell id="g9qXsRPy_t7KyJfr9dKG-3" value="&lt;font style=&quot;font-size: 20px&quot;&gt;B&lt;br&gt;5&lt;/font&gt;" style="text;html=1;strokeColor=none;fillColor=none;align=center;verticalAlign=middle;whiteSpace=wrap;rounded=0;" vertex="1" parent="1">
          <mxGeometry x="260" y="40" width="40" height="20" as="geometry" />
        </mxCell>
        <mxCell id="g9qXsRPy_t7KyJfr9dKG-4" value="S&lt;br&gt;2" style="text;html=1;strokeColor=none;fillColor=none;align=center;verticalAlign=middle;whiteSpace=wrap;rounded=0;fontSize=21;" vertex="1" parent="1">
          <mxGeometry x="70" y="40" width="40" height="20" as="geometry" />
        </mxCell>
        <mxCell id="g9qXsRPy_t7KyJfr9dKG-5" value="D&lt;br&gt;3" style="text;html=1;strokeColor=none;fillColor=none;align=center;verticalAlign=middle;whiteSpace=wrap;rounded=0;fontSize=21;" vertex="1" parent="1">
          <mxGeometry x="190" y="40" width="40" height="20" as="geometry" />
        </mxCell>
        <mxCell id="g9qXsRPy_t7KyJfr9dKG-6" value="E&lt;br&gt;12" style="text;html=1;strokeColor=none;fillColor=none;align=center;verticalAlign=middle;whiteSpace=wrap;rounded=0;fontSize=21;" vertex="1" parent="1">
          <mxGeometry x="600" y="40" width="40" height="20" as="geometry" />
        </mxCell>
        <mxCell id="g9qXsRPy_t7KyJfr9dKG-12" style="edgeStyle=orthogonalEdgeStyle;rounded=0;orthogonalLoop=1;jettySize=auto;html=1;exitX=0.5;exitY=0;exitDx=0;exitDy=0;fontSize=21;" edge="1" parent="1" source="g9qXsRPy_t7KyJfr9dKG-9" target="g9qXsRPy_t7KyJfr9dKG-11">
          <mxGeometry relative="1" as="geometry" />
        </mxCell>
        <mxCell id="g9qXsRPy_t7KyJfr9dKG-9" value="S&lt;br&gt;2" style="ellipse;whiteSpace=wrap;html=1;aspect=fixed;fontSize=21;" vertex="1" parent="1">
          <mxGeometry x="430" y="690" width="80" height="80" as="geometry" />
        </mxCell>
        <mxCell id="g9qXsRPy_t7KyJfr9dKG-13" style="edgeStyle=orthogonalEdgeStyle;rounded=0;orthogonalLoop=1;jettySize=auto;html=1;exitX=0.5;exitY=0;exitDx=0;exitDy=0;fontSize=21;" edge="1" parent="1" source="g9qXsRPy_t7KyJfr9dKG-10">
          <mxGeometry relative="1" as="geometry">
            <mxPoint x="550" y="610" as="targetPoint" />
          </mxGeometry>
        </mxCell>
        <mxCell id="g9qXsRPy_t7KyJfr9dKG-10" value="D&lt;br&gt;3" style="ellipse;whiteSpace=wrap;html=1;aspect=fixed;fontSize=21;" vertex="1" parent="1">
          <mxGeometry x="590" y="690" width="80" height="80" as="geometry" />
        </mxCell>
        <mxCell id="g9qXsRPy_t7KyJfr9dKG-22" style="edgeStyle=orthogonalEdgeStyle;rounded=0;orthogonalLoop=1;jettySize=auto;html=1;exitX=0.5;exitY=0;exitDx=0;exitDy=0;fontSize=21;" edge="1" parent="1" source="g9qXsRPy_t7KyJfr9dKG-11" target="g9qXsRPy_t7KyJfr9dKG-16">
          <mxGeometry relative="1" as="geometry" />
        </mxCell>
        <mxCell id="g9qXsRPy_t7KyJfr9dKG-11" value="5" style="ellipse;whiteSpace=wrap;html=1;aspect=fixed;fontSize=21;" vertex="1" parent="1">
          <mxGeometry x="510" y="530" width="80" height="80" as="geometry" />
        </mxCell>
        <mxCell id="g9qXsRPy_t7KyJfr9dKG-14" value="5" style="ellipse;whiteSpace=wrap;html=1;aspect=fixed;fontSize=21;" vertex="1" parent="1">
          <mxGeometry x="340" y="20" width="60" height="60" as="geometry" />
        </mxCell>
        <mxCell id="g9qXsRPy_t7KyJfr9dKG-19" style="edgeStyle=orthogonalEdgeStyle;rounded=0;orthogonalLoop=1;jettySize=auto;html=1;exitX=0.5;exitY=0;exitDx=0;exitDy=0;entryX=0.5;entryY=1;entryDx=0;entryDy=0;fontSize=21;" edge="1" parent="1" source="g9qXsRPy_t7KyJfr9dKG-15" target="g9qXsRPy_t7KyJfr9dKG-16">
          <mxGeometry relative="1" as="geometry" />
        </mxCell>
        <mxCell id="g9qXsRPy_t7KyJfr9dKG-15" value="B&lt;br&gt;5" style="ellipse;whiteSpace=wrap;html=1;aspect=fixed;fontSize=21;" vertex="1" parent="1">
          <mxGeometry x="350" y="530" width="80" height="80" as="geometry" />
        </mxCell>
        <mxCell id="g9qXsRPy_t7KyJfr9dKG-28" style="edgeStyle=orthogonalEdgeStyle;rounded=0;orthogonalLoop=1;jettySize=auto;html=1;exitX=0.5;exitY=0;exitDx=0;exitDy=0;fontSize=21;" edge="1" parent="1" source="g9qXsRPy_t7KyJfr9dKG-16" target="g9qXsRPy_t7KyJfr9dKG-26">
          <mxGeometry relative="1" as="geometry" />
        </mxCell>
        <mxCell id="g9qXsRPy_t7KyJfr9dKG-16" value="10" style="ellipse;whiteSpace=wrap;html=1;aspect=fixed;fontSize=21;" vertex="1" parent="1">
          <mxGeometry x="430" y="390" width="80" height="80" as="geometry" />
        </mxCell>
        <mxCell id="g9qXsRPy_t7KyJfr9dKG-24" value="10" style="ellipse;whiteSpace=wrap;html=1;aspect=fixed;fontSize=21;" vertex="1" parent="1">
          <mxGeometry x="520" y="20" width="60" height="60" as="geometry" />
        </mxCell>
        <mxCell id="g9qXsRPy_t7KyJfr9dKG-27" style="edgeStyle=orthogonalEdgeStyle;rounded=0;orthogonalLoop=1;jettySize=auto;html=1;exitX=0.5;exitY=0;exitDx=0;exitDy=0;entryX=0.5;entryY=1;entryDx=0;entryDy=0;fontSize=21;" edge="1" parent="1" source="g9qXsRPy_t7KyJfr9dKG-25" target="g9qXsRPy_t7KyJfr9dKG-26">
          <mxGeometry relative="1" as="geometry" />
        </mxCell>
        <mxCell id="g9qXsRPy_t7KyJfr9dKG-25" value="A&lt;br&gt;8" style="ellipse;whiteSpace=wrap;html=1;aspect=fixed;fontSize=21;" vertex="1" parent="1">
          <mxGeometry x="270" y="390" width="80" height="80" as="geometry" />
        </mxCell>
        <mxCell id="g9qXsRPy_t7KyJfr9dKG-33" style="edgeStyle=orthogonalEdgeStyle;rounded=0;orthogonalLoop=1;jettySize=auto;html=1;exitX=0.5;exitY=0;exitDx=0;exitDy=0;fontSize=21;" edge="1" parent="1" source="g9qXsRPy_t7KyJfr9dKG-26" target="g9qXsRPy_t7KyJfr9dKG-31">
          <mxGeometry relative="1" as="geometry" />
        </mxCell>
        <mxCell id="g9qXsRPy_t7KyJfr9dKG-26" value="18" style="ellipse;whiteSpace=wrap;html=1;aspect=fixed;fontSize=21;" vertex="1" parent="1">
          <mxGeometry x="350" y="260" width="80" height="80" as="geometry" />
        </mxCell>
        <mxCell id="g9qXsRPy_t7KyJfr9dKG-29" value="18" style="ellipse;whiteSpace=wrap;html=1;aspect=fixed;fontSize=21;" vertex="1" parent="1">
          <mxGeometry x="650" y="20" width="60" height="60" as="geometry" />
        </mxCell>
        <mxCell id="g9qXsRPy_t7KyJfr9dKG-32" style="edgeStyle=orthogonalEdgeStyle;rounded=0;orthogonalLoop=1;jettySize=auto;html=1;exitX=0.5;exitY=0;exitDx=0;exitDy=0;entryX=0.5;entryY=1;entryDx=0;entryDy=0;fontSize=21;" edge="1" parent="1" source="g9qXsRPy_t7KyJfr9dKG-30" target="g9qXsRPy_t7KyJfr9dKG-31">
          <mxGeometry relative="1" as="geometry" />
        </mxCell>
        <mxCell id="g9qXsRPy_t7KyJfr9dKG-30" value="E&lt;br&gt;12" style="ellipse;whiteSpace=wrap;html=1;aspect=fixed;fontSize=21;" vertex="1" parent="1">
          <mxGeometry x="190" y="260" width="80" height="80" as="geometry" />
        </mxCell>
        <mxCell id="g9qXsRPy_t7KyJfr9dKG-31" value="30" style="ellipse;whiteSpace=wrap;html=1;aspect=fixed;fontSize=21;" vertex="1" parent="1">
          <mxGeometry x="270" y="140" width="80" height="80" as="geometry" />
        </mxCell>
        <mxCell id="g9qXsRPy_t7KyJfr9dKG-34" value="0" style="text;html=1;strokeColor=none;fillColor=none;align=center;verticalAlign=middle;whiteSpace=wrap;rounded=0;fontSize=12;" vertex="1" parent="1">
          <mxGeometry x="240" y="220" width="40" height="20" as="geometry" />
        </mxCell>
        <mxCell id="g9qXsRPy_t7KyJfr9dKG-35" value="0" style="text;html=1;strokeColor=none;fillColor=none;align=center;verticalAlign=middle;whiteSpace=wrap;rounded=0;fontSize=12;" vertex="1" parent="1">
          <mxGeometry x="320" y="340" width="40" height="20" as="geometry" />
        </mxCell>
        <mxCell id="g9qXsRPy_t7KyJfr9dKG-36" value="0" style="text;html=1;strokeColor=none;fillColor=none;align=center;verticalAlign=middle;whiteSpace=wrap;rounded=0;fontSize=12;" vertex="1" parent="1">
          <mxGeometry x="385" y="480" width="40" height="20" as="geometry" />
        </mxCell>
        <mxCell id="g9qXsRPy_t7KyJfr9dKG-37" value="0" style="text;html=1;strokeColor=none;fillColor=none;align=center;verticalAlign=middle;whiteSpace=wrap;rounded=0;fontSize=12;" vertex="1" parent="1">
          <mxGeometry x="470" y="630" width="40" height="20" as="geometry" />
        </mxCell>
        <mxCell id="g9qXsRPy_t7KyJfr9dKG-38" value="1" style="text;html=1;strokeColor=none;fillColor=none;align=center;verticalAlign=middle;whiteSpace=wrap;rounded=0;fontSize=12;" vertex="1" parent="1">
          <mxGeometry x="580" y="630" width="40" height="20" as="geometry" />
        </mxCell>
        <mxCell id="g9qXsRPy_t7KyJfr9dKG-40" value="1" style="text;html=1;strokeColor=none;fillColor=none;align=center;verticalAlign=middle;whiteSpace=wrap;rounded=0;fontSize=12;" vertex="1" parent="1">
          <mxGeometry x="510" y="480" width="40" height="20" as="geometry" />
        </mxCell>
        <mxCell id="g9qXsRPy_t7KyJfr9dKG-41" value="1" style="text;html=1;strokeColor=none;fillColor=none;align=center;verticalAlign=middle;whiteSpace=wrap;rounded=0;fontSize=12;" vertex="1" parent="1">
          <mxGeometry x="425" y="340" width="40" height="20" as="geometry" />
        </mxCell>
        <mxCell id="g9qXsRPy_t7KyJfr9dKG-42" value="1" style="text;html=1;strokeColor=none;fillColor=none;align=center;verticalAlign=middle;whiteSpace=wrap;rounded=0;fontSize=12;" vertex="1" parent="1">
          <mxGeometry x="350" y="220" width="40" height="20" as="geometry" />
        </mxCell>
      </root>
    </mxGraphModel>
  </diagram>
</mxfile>
